Coordinates
version=1
nRows=10
nColumns=40
inDegrees=yes

Units are S.I. units (second, meters, Newtons, ...)
Angles are in degrees.

endheader
time	pelvis_tilt	pelvis_list	pelvis_rotation	pelvis_tx	pelvis_ty	pelvis_tz	hip_flexion_r	hip_adduction_r	hip_rotation_r	knee_angle_r	knee_angle_r_beta	ankle_angle_r	subtalar_angle_r	mtp_angle_r	hip_flexion_l	hip_adduction_l	hip_rotation_l	knee_angle_l	knee_angle_l_beta	ankle_angle_l	subtalar_angle_l	mtp_angle_l	lumbar_extension	lumbar_bending	lumbar_rotation	arm_flex_r	arm_add_r	arm_rot_r	elbow_flex_r	pro_sup_r	wrist_flex_r	wrist_dev_r	arm_flex_l	arm_add_l	arm_rot_l	elbow_flex_l	pro_sup_l	wrist_flex_l	wrist_dev_l
     31.46250000	     -2.64542245	     -4.40353188	      0.70144296	      0.95506242	      0.92505296	      0.48177448	     19.99403644	      2.36578325	    -12.04828426	     19.74771186	     19.74771186	      4.85952684	     -5.29493485	     -4.09241838	      4.26588468	     -8.69670473	     -7.23211465	     38.75540632	     38.75540632	     12.15393428	    -10.82612270	    -13.73731866	     -7.46054895	      5.78636918	      1.42626616	     -2.53133941	    -12.79651958	     -6.96841236	     39.07351040	     45.72808978	      0.00000000	      0.00000000	     15.50321799	    -12.29569482	     -4.30644583	     60.61122691	     47.23867334	      0.00000000	      0.00000000
     31.47457143	     -2.53002585	     -4.54485675	      1.08061314	      0.95558810	      0.92596550	      0.48352746	     19.09114495	      2.60040494	    -12.47614192	     19.33652159	     19.33652159	      5.25543622	     -5.06676112	     -4.40948706	      6.27412580	     -9.28299193	     -6.16053364	     42.96954332	     42.96954332	     10.02366336	    -12.48554977	    -13.81369412	     -7.50512142	      5.90714884	      1.20892348	     -1.02095834	    -12.94170711	     -7.13723022	     40.51102184	     45.69215810	      0.00000000	      0.00000000	     14.32876767	    -12.19055955	     -3.83073650	     58.93254400	     47.16597887	      0.00000000	      0.00000000
     31.48664286	     -2.41288286	     -4.68273458	      1.42932435	      0.95583606	      0.92675862	      0.48515963	     18.19153903	      2.81018944	    -12.99511736	     18.88926888	     18.88926888	      5.45517003	     -4.56365978	     -5.21855670	      8.44167373	     -9.74238384	     -4.97415530	     47.25860648	     47.25860648	      8.25962067	    -13.86787116	    -12.35806344	     -7.58919080	      6.06085753	      1.71663527	     -0.26205839	    -13.39936926	     -7.14933483	     42.85203556	     45.61154698	      0.00000000	      0.00000000	     14.22431660	    -11.45380614	     -3.23219585	     55.53154592	     47.06010786	      0.00000000	      0.00000000
     31.49871429	     -2.29249219	     -4.82245776	      1.80397989	      0.95583457	      0.92745301	      0.48665086	     17.34424339	      3.00743172	    -13.57444872	     18.53452221	     18.53452221	      5.79383530	     -4.05467240	     -5.59465988	     10.67173565	    -10.12191102	     -3.79540267	     51.37503774	     51.37503774	      6.76446815	    -15.01485758	    -10.29407795	     -7.72119350	      6.19503422	      1.54805966	      1.36254111	    -13.61080056	     -7.29526346	     44.40864893	     45.57227929	      0.00000000	      0.00000000	     13.28982854	    -11.21589568	     -2.88649435	     53.23853859	     46.98703703	      0.00000000	      0.00000000
     31.51078571	     -2.27717787	     -4.99694694	      2.12682400	      0.95552836	      0.92790411	      0.48809141	     16.60360792	      3.23044123	    -14.23834910	     18.11100761	     18.11100761	      6.03590183	     -3.29480633	     -6.10751341	     13.16897374	    -10.49141866	     -2.71786965	     55.51614940	     55.51614940	      6.74397170	    -15.09740863	     -5.26465432	     -7.73123282	      6.36084002	      2.18293537	      2.35638422	    -14.14931635	     -7.31016738	     46.38651536	     45.51131123	      0.00000000	      0.00000000	     13.21202835	    -10.39974155	     -2.52994926	     49.74323328	     46.89532847	      0.00000000	      0.00000000
     31.52285714	     -2.18744298	     -5.20014421	      2.46381711	      0.95506135	      0.92839774	      0.48949521	     15.81918184	      3.50554699	    -14.83852297	     17.73191324	     17.73191324	      6.34591835	     -2.66812551	     -6.30616766	     15.46096844	    -10.83393934	     -1.70547881	     59.01625972	     59.01625972	      6.23997554	    -15.60998718	     -2.13153272	     -7.86077003	      6.54704878	      2.13935625	      4.05335939	    -14.37958826	     -7.55017400	     47.98419471	     45.47836589	      0.00000000	      0.00000000	     12.32191528	    -10.12949929	     -2.21218320	     47.37333786	     46.81598382	      0.00000000	      0.00000000
     31.53492857	     -2.21050112	     -5.44747015	      2.74184168	      0.95432236	      0.92873355	      0.49092653	     15.14519665	      3.85699627	    -15.36159218	     17.27523332	     17.27523332	      6.62509616	     -2.05820292	     -6.33686864	     17.91144021	    -11.22143816	     -0.84424747	     62.20294657	     62.20294657	      6.73209027	    -15.57753592	      2.46902898	     -7.89580600	      6.75846440	      2.67656928	      5.36723306	    -14.84385538	     -7.84872951	     49.64795978	     45.45047096	      0.00000000	      0.00000000	     11.92822663	     -9.48936889	     -1.93059388	     44.44624635	     46.71668515	      0.00000000	      0.00000000
     31.54700000	     -2.16481024	     -5.66292867	      2.94975383	      0.95348582	      0.92915248	      0.49243177	     14.45768269	      4.21201790	    -15.70927978	     16.90642046	     16.90642046	      6.88089094	     -1.69806316	     -6.36504128	     19.99544293	    -11.60211901	     -0.22769822	     64.46415754	     64.46415754	      5.94148999	    -16.26332649	      2.81105911	     -8.07271668	      6.90403678	      3.02260746	      7.21672976	    -15.21143846	     -8.05215934	     50.54620960	     45.43834949	      0.00000000	      0.00000000	     10.69054291	     -9.16040675	     -1.74769213	     43.46114962	     46.67125939	      0.00000000	      0.00000000
     31.55907143	     -2.22810785	     -5.93538195	      3.26115656	      0.95258765	      0.92949062	      0.49381730	     13.76276838	      4.61868315	    -16.25339649	     16.28517904	     16.28517904	      7.11482427	     -1.00857787	     -6.37599672	     22.17945646	    -11.95084268	      0.45832925	     66.22968346	     66.22968346	      5.66616194	    -16.89026392	      3.57154591	     -8.01950254	      7.08298173	      2.78208935	      9.22210284	    -15.25668020	     -8.23017214	     51.77703901	     45.41382863	      0.00000000	      0.00000000	      9.42850290	     -9.05819645	     -1.53420641	     41.63267236	     46.61606093	      0.00000000	      0.00000000
     31.57114286	     -2.13775707	     -5.97183993	      3.44587237	      0.95165501	      0.93026982	      0.49500894	     12.93339947	      4.71696503	    -16.95547358	     15.79532870	     15.79532870	      7.45713462	      0.30946998	     -6.34070234	     24.01709322	    -12.04568810	      0.83903272	     67.45503896	     67.45503896	      6.67559911	    -16.96527650	      6.77244718	     -8.20028965	      7.08222268	      3.06473338	     11.06658773	    -15.56415692	     -8.25806033	     53.13220922	     45.38367833	      0.00000000	      0.00000000	      9.31380631	     -8.57293592	     -1.28151295	     37.32558811	     46.53884309	      0.00000000	      0.00000000
